<svg xmlns="http://www.w3.org/2000/svg" xmlns:xlink="http://www.w3.org/1999/xlink" width="120" height="71.468" viewBox="0 0 120 71.468"><defs><clipPath id="a"><rect width="120" height="71.468" fill="none"/></clipPath></defs><path d="M133.811,34.131h-6.864v6.7H121.86v-6.7h-6.822V29.32h6.822v-6.7h5.087v6.7h6.864Z" transform="translate(-31.915 -6.274)" fill="#fff"/><path d="M53.312,9.408V46.714H44.678V16.337H37.216V9.408Z" transform="translate(-10.325 -2.61)" fill="#fff"/><g transform="translate(0 0)"><g clip-path="url(#a)"><path d="M93.246,2.056C84.683-.479,74.221.173,67.476,6.564a16.081,16.081,0,0,1,2.47-2.437C76.5-.745,85.876-1.129,93.246,2.056" transform="translate(-18.72 0)" fill="#fff"/><path d="M134.473,21.178c-.386.029-.771.064-1.157.08l0-.08a5.878,5.878,0,0,0-6.369-6.346c-1.505.024-3.811-.11-5.287-.02a5.952,5.952,0,0,0-4.234,2.72,5.693,5.693,0,0,1,1.647-2.122c1.436-1.211,3.446-1.3,5.207-1.27,1.607.05,3.9-.26,5.41.356a6.049,6.049,0,0,1,3.778,6.683l-.077-.077c.361.017.723.05,1.084.077" transform="translate(-32.576 -3.913)" fill="#fff"/><path d="M50.952,1.274c-3.432.149-6.864.219-10.3.277-2.129.073-4.27-.012-6.4.094A5.548,5.548,0,0,0,29.751,5.2c-.71,2.4-.2,5.074-.4,7.562a5.934,5.934,0,0,0,5.5,7,5.882,5.882,0,0,1-6.03-5.708l-.028-1.29c.09-2.53-.414-5.367.3-7.8A6.194,6.194,0,0,1,35.509.946c5.149.026,10.3.116,15.443.328" transform="translate(-7.965 -0.255)" fill="#fff"/><path d="M98.17,30.479a9.223,9.223,0,0,1,1.466,5.169A9.691,9.691,0,0,1,97.664,41.7a12.587,12.587,0,0,1-5.542,4,24.8,24.8,0,0,1-16.495,0,12.407,12.407,0,0,1-5.492-4,9.773,9.773,0,0,1-1.945-6.049,9.222,9.222,0,0,1,1.465-5.169,10.642,10.642,0,0,1,4.184-3.625,9.09,9.09,0,0,1-3.2-3.224,8.757,8.757,0,0,1-1.119-4.449,9.115,9.115,0,0,1,1.811-5.65,11.57,11.57,0,0,1,5.063-3.7,19.918,19.918,0,0,1,7.461-1.3,20.276,20.276,0,0,1,7.541,1.3,11.56,11.56,0,0,1,5.09,3.7,9.111,9.111,0,0,1,1.811,5.65,8.752,8.752,0,0,1-1.119,4.449,8.963,8.963,0,0,1-3.252,3.224,10.571,10.571,0,0,1,4.239,3.625M89,39.3A4.706,4.706,0,0,0,90.9,35.382,4.634,4.634,0,0,0,89,31.492a8.3,8.3,0,0,0-5.143-1.439A8.086,8.086,0,0,0,78.8,31.492a4.657,4.657,0,0,0-1.866,3.89A4.71,4.71,0,0,0,78.8,39.326a8.092,8.092,0,0,0,5.063,1.439A8.194,8.194,0,0,0,89,39.3M79.677,16.116a4.156,4.156,0,0,0-1.572,3.438,4.052,4.052,0,0,0,1.545,3.358,6.6,6.6,0,0,0,4.21,1.228,6.826,6.826,0,0,0,4.263-1.228,4,4,0,0,0,1.6-3.358,4.13,4.13,0,0,0-1.6-3.438,6.726,6.726,0,0,0-4.263-1.252A6.52,6.52,0,0,0,79.677,16.116Z" transform="translate(-18.917 -2.363)" fill="#fff"/><path d="M117.446,22.184s-3.923-2.228-15.549-2.308c2.8.255,5.781,2.588,5.781,5.781v4.81a5.78,5.78,0,0,1-5.781,5.781h-1.084v.923a5.78,5.78,0,0,1-5.781,5.781H89.945a5.762,5.762,0,0,1-4.273-1.9,15.465,15.465,0,0,1-2.321,4.387c-.025.033-.051.066-.077.1a18.365,18.365,0,0,1-8.087,5.834,30.575,30.575,0,0,1-20.4.022l-.07-.025a18.177,18.177,0,0,1-6.036-3.693,5.777,5.777,0,0,1-5.694,4.82H34.353a5.78,5.78,0,0,1-5.781-5.781v-24.6H26.892a5.779,5.779,0,0,1-5.685-4.757l-.1,0V9.409l-.874.077L2.559,21.643A5.906,5.906,0,0,0,2.312,31.2L56.647,72.86a5.906,5.906,0,0,0,7.178.007l53.854-41.125a5.906,5.906,0,0,0-.233-9.557" transform="translate(0 -2.61)" fill="#fff"/></g></g></svg>