<svg xmlns="http://www.w3.org/2000/svg" xmlns:xlink="http://www.w3.org/1999/xlink" width="120" height="91.135" viewBox="0 0 120 91.135"><defs><clipPath id="a"><rect width="120" height="91.135" fill="none"/></clipPath></defs><g clip-path="url(#a)"><path d="M67.6,75.125a4.983,4.983,0,1,0,4.986,4.982A4.982,4.982,0,0,0,67.6,75.125m0,7.293a2.312,2.312,0,1,1,2.312-2.312A2.312,2.312,0,0,1,67.6,82.418" transform="translate(-17.374 -20.842)" fill="#fff"/><path d="M93.1,75.125a4.983,4.983,0,1,0,4.981,4.983h0A4.986,4.986,0,0,0,93.1,75.125m0,7.293a2.312,2.312,0,1,1,2.312-2.312A2.312,2.312,0,0,1,93.1,82.418" transform="translate(-24.446 -20.842)" fill="#fff"/><path d="M108.349,8.552A11.947,11.947,0,1,0,120.3,20.5,11.947,11.947,0,0,0,108.349,8.552m-1.729,17.53-5.8-5.8,1.906-1.906,3.894,3.888,7.354-7.353,1.906,1.912Z" transform="translate(-26.745 -2.373)" fill="#fff"/><path d="M83.336,53.048H55.222l-1.136-4.3H80.234a1.6,1.6,0,0,0,1.5-1.041l4.476-11.967a13.874,13.874,0,0,1-9.357-10.609H47.843l-2.088-7.9a1.6,1.6,0,0,0-1.549-1.193H33.47a1.6,1.6,0,0,0,0,3.2h9.5l2.087,7.893,5.4,20.413v0l1.983,7.5a1.6,1.6,0,0,0,1.549,1.193H83.335a1.6,1.6,0,0,0,0-3.206Zm-2.66-17.8h2.3l-1.33,3.556h-.964ZM68.841,28.337h8.63v3.708h-8.63Zm0,6.912h8.63v3.556h-8.63Zm0,6.76h8.63v3.536h-8.63ZM56.014,28.337h9.623v3.708H56.014Zm0,6.912h9.623v3.556H56.014Zm0,6.76h9.623v3.536H56.014Zm-3.2,1.91L52.3,42.01h.506Zm0-5.115H51.458l-.939-3.556H52.81Zm0-6.76H49.671l-.981-3.708h4.119Z" transform="translate(-8.841 -4.451)" fill="#fff"/><path d="M48.924,13.36a7.546,7.546,0,0,0-6.461-5.095c-2.947-.026-5.978-.17-8.936-.22-1.955-.034-4.02-.153-5.748.9a7.222,7.222,0,0,0,1.71,13.27c1.832.5,4.143.132,5.9.512a31.146,31.146,0,0,1-6.026.038A7.555,7.555,0,0,1,30.529,7.821c3-.01,5.98-.09,8.974-.2.9.015,2.115-.07,3.016.014,3.007.236,6.109,2.781,6.4,5.726" transform="translate(-6.476 -2.107)" fill="#fff"/><path d="M124.1,25.6A19.231,19.231,0,0,0,122.4,7.965c-3.492-5.1-9.993-7.657-16.05-7.1A18.574,18.574,0,0,0,95.38,5.807c2.4-3.2,6.778-5.265,10.9-5.708,13.183-1.478,24.614,13.79,17.817,25.5" transform="translate(-26.461 0)" fill="#fff"/><path d="M117.446,47.141,97.67,33.513A17.751,17.751,0,0,1,81.837,43.749l-3.106,8.305a7.367,7.367,0,0,1,.2,11.93A10.759,10.759,0,0,1,68.653,77.93h0a10.7,10.7,0,0,1-7.611-3.153,10.821,10.821,0,0,1-1.6-2.064,10.757,10.757,0,0,1-9.2,5.218h-.008A10.732,10.732,0,0,1,40.125,63.5a7.37,7.37,0,0,1-2.116-3.519L29.681,28.479H28.91L2.559,46.6a5.906,5.906,0,0,0-.247,9.552L56.647,97.816a5.906,5.906,0,0,0,7.178.007L117.679,56.7a5.906,5.906,0,0,0-.233-9.557" transform="translate(0 -7.901)" fill="#fff"/></g></svg>