<svg xmlns="http://www.w3.org/2000/svg" xmlns:xlink="http://www.w3.org/1999/xlink" width="120" height="91.23" viewBox="0 0 120 91.23"><defs><clipPath id="a"><rect width="120" height="91.23" fill="none"/></clipPath></defs><g clip-path="url(#a)"><path d="M76.782,8.216A14.163,14.163,0,1,1,62.619,22.379,14.163,14.163,0,0,1,76.782,8.216" transform="translate(-17.372 -2.279)" fill="#fff"/><path d="M84.165,53.005H63.344A11.64,11.64,0,0,0,51.705,64.644V75.7h9.019a13.371,13.371,0,0,1-.137-1.884,13.167,13.167,0,1,1,26.2,1.884H95.8V64.644A11.639,11.639,0,0,0,84.165,53.005" transform="translate(-14.344 -14.705)" fill="#fff"/><path d="M78.038,66.726A10.894,10.894,0,1,0,88.932,77.62,10.894,10.894,0,0,0,78.038,66.726ZM76.462,82.714,71.174,77.42l1.734-1.734,3.554,3.547,6.705-6.706L84.9,74.268Z" transform="translate(-18.628 -18.512)" fill="#fff"/><path d="M75.156.192c-3.335.534-6.739.978-9.706,2.636a27.411,27.411,0,0,0-8.627,9.514l-.066-.028A15.145,15.145,0,0,1,59.524,7.12a17.505,17.505,0,0,1,5.805-4.506,42.061,42.061,0,0,1,3.989-1.9A11.581,11.581,0,0,1,75.156.192" transform="translate(-15.746 0)" fill="#fff"/><path d="M117.446,43.885,77.56,16.4a19.877,19.877,0,0,1-3.091,21.3A17.447,17.447,0,0,1,87.241,54.49V65.545a5.78,5.78,0,0,1-5.781,5.781H74.212a16.663,16.663,0,0,1-29.6,0h-7.25a5.781,5.781,0,0,1-5.781-5.781V54.49A17.45,17.45,0,0,1,44.352,37.7a19.9,19.9,0,0,1-3.308-20.826L2.559,43.344A5.906,5.906,0,0,0,2.312,52.9L56.647,94.561a5.906,5.906,0,0,0,7.178.007l53.854-41.126a5.906,5.906,0,0,0-.233-9.557" transform="translate(0 -4.55)" fill="#fff"/></g></svg>