<svg xmlns="http://www.w3.org/2000/svg" width="32" height="32" viewBox="0 0 32 32"><g transform="translate(1308 2904) rotate(180)"><circle cx="16" cy="16" r="16" transform="translate(1276 2872)" fill="#393939"/><path d="M16,1A15,15,0,0,0,5.393,26.607,15,15,0,1,0,26.607,5.393,14.9,14.9,0,0,0,16,1m0-1A16,16,0,1,1,0,16,16,16,0,0,1,16,0Z" transform="translate(1276 2872)" fill="#fff"/><g transform="translate(1304 2900) rotate(180)"><path d="M1,1V23H23V1H1M0,0H24V24H0Z" fill="#fff" opacity="0"/><g transform="translate(1.29 2.499)"><path d="M0,15a1,1,0,0,1-1-1V0A1,1,0,0,1,0-1,1,1,0,0,1,1,0V14A1,1,0,0,1,0,15Z" transform="translate(10.71 2.501)" fill="#fff"/><path d="M12,20a1,1,0,0,1-.707-.293l-7-7a1,1,0,1,1,1.414-1.414L12,17.586l6.293-6.293a1,1,0,1,1,1.414,1.414l-7,7A1,1,0,0,1,12,20Z" transform="translate(-1.29 -2.499)" fill="#fff"/></g></g></g></svg>